<?xml version="1.0" encoding="utf-8"?>
<!-- Generator: Adobe Illustrator 24.1.2, SVG Export Plug-In . SVG Version: 6.00 Build 0)  -->
<svg version="1.1" id="Livello_1" xmlns="http://www.w3.org/2000/svg" xmlns:xlink="http://www.w3.org/1999/xlink" x="0px" y="0px"
	 viewBox="0 0 1000 1000" style="enable-background:new 0 0 1000 1000;" xml:space="preserve">
<style type="text/css">
	.st0{fill:#039114;}
	.st1{fill:#FF0000;}
	.st2{fill:#F3F400;}
	.st3{fill:#0000FF;}
</style>
<g>
	<g>
		<path class="st3" d="M21.58,516.57V914.2c0,39.17,34.48,69.18,73.33,64.18c459.88-59.29,824.19-423.59,883.48-883.48
			c5.01-38.85-25.01-73.33-64.18-73.33H508.14c-30.33,0-56.89,20.9-63.43,50.52C403.29,259.72,257.58,408.16,71.48,453.55
			C42.3,460.67,21.58,486.53,21.58,516.57z"/>
		<path d="M86.54,990.25c-18.5,0-36.48-6.69-50.5-19.02c-16.39-14.41-25.79-35.19-25.79-57.02V516.57
			c0-35.17,24.08-65.61,58.55-74.02C250.19,398.3,393.4,251.93,433.65,69.65c7.6-34.42,38.93-59.4,74.5-59.4H914.2
			c21.83,0,42.61,9.4,57.02,25.79c14.5,16.49,21.21,38.48,18.39,60.32c-14.72,114.21-48.19,224.34-99.48,327.32
			c-49.99,100.38-115.69,191.63-195.26,271.2c-79.58,79.58-170.82,145.27-271.2,195.26c-102.98,51.28-213.11,84.75-327.32,99.48
			C93.08,990.04,89.8,990.25,86.54,990.25z M508.14,32.91c-25.02,0-47.04,17.51-52.37,41.63
			c-20.77,94.06-67.57,180.35-135.33,249.55c-67.68,69.11-152.84,117.68-246.28,140.47c-24.29,5.93-41.26,27.31-41.26,52.01V914.2
			c0,15.31,6.59,29.9,18.09,40.01c11.6,10.2,27.08,14.92,42.46,12.93C549.13,908.4,908.4,549.13,967.14,93.46
			c1.98-15.38-2.73-30.86-12.93-42.46c-10.11-11.5-24.69-18.09-40.01-18.09H508.14z"/>
	</g>
</g>
</svg>
