<?xml version="1.0" encoding="utf-8"?>
<!-- Generator: Adobe Illustrator 24.1.2, SVG Export Plug-In . SVG Version: 6.00 Build 0)  -->
<svg version="1.1" id="Livello_1" xmlns="http://www.w3.org/2000/svg" xmlns:xlink="http://www.w3.org/1999/xlink" x="0px" y="0px"
	 viewBox="0 0 1000 1000" style="enable-background:new 0 0 1000 1000;" xml:space="preserve">
<style type="text/css">
	.st0{fill:#4BB9F9;}
</style>
<g>
	<g>
		<path class="st0" d="M21.6,516.6v397.6c0,39.2,34.5,69.2,73.3,64.2c459.9-59.3,824.2-423.6,883.5-883.5c5-38.8-25-73.3-64.2-73.3
			H508.1c-30.3,0-56.9,20.9-63.4,50.5C403.3,259.7,257.6,408.2,71.5,453.5C42.3,460.7,21.6,486.5,21.6,516.6z"/>
		<path d="M86.5,990.3c-18.5,0-36.5-6.7-50.5-19c-16.4-14.4-25.8-35.2-25.8-57V516.6c0-35.2,24.1-65.6,58.6-74
			c181.4-44.3,324.6-190.6,364.8-372.9c7.6-34.4,38.9-59.4,74.5-59.4h406.1c21.8,0,42.6,9.4,57,25.8c14.5,16.5,21.2,38.5,18.4,60.3
			c-14.7,114.2-48.2,224.3-99.5,327.3c-50,100.4-115.7,191.6-195.3,271.2c-79.6,79.6-170.8,145.3-271.2,195.3
			c-103,51.3-213.1,84.8-327.3,99.5C93.1,990,89.8,990.3,86.5,990.3z M508.1,32.9c-25,0-47,17.5-52.4,41.6
			c-20.8,94.1-67.6,180.4-135.3,249.5c-67.7,69.1-152.8,117.7-246.3,140.5c-24.3,5.9-41.3,27.3-41.3,52v397.6
			c0,15.3,6.6,29.9,18.1,40c11.6,10.2,27.1,14.9,42.5,12.9c455.7-58.7,815-418,873.7-873.7c2-15.4-2.7-30.9-12.9-42.5
			c-10.1-11.5-24.7-18.1-40-18.1H508.1z"/>
	</g>
</g>
</svg>
