<?xml version="1.0" encoding="utf-8"?>
<!-- Generator: Adobe Illustrator 24.1.2, SVG Export Plug-In . SVG Version: 6.00 Build 0)  -->
<svg version="1.1" id="Livello_1" xmlns="http://www.w3.org/2000/svg" xmlns:xlink="http://www.w3.org/1999/xlink" x="0px" y="0px"
	 viewBox="0 0 1000 1000" style="enable-background:new 0 0 1000 1000;" xml:space="preserve">
<style type="text/css">
	.st0{fill:#03FF14;}
</style>
<g>
	<g>
		<path class="st0" d="M990.4,478.4V85.8c0-39.2-34.5-69.2-73.3-64.2C457.2,80.9,92.9,445.2,33.6,905.1c-5,38.8,25,73.3,64.2,73.3
			h383.7c30.5,0,56.7-21.3,63.3-51.1c43.1-194,197.7-346,393.1-385.3C968.3,535.9,990.4,509.5,990.4,478.4z"/>
		<path d="M481.5,989.8H97.8c-21.8,0-42.6-9.4-57-25.8c-14.5-16.5-21.2-38.5-18.4-60.3c14.7-114.2,48.2-224.3,99.5-327.3
			c50-100.4,115.7-191.6,195.3-271.2S488,159.8,588.3,109.9c103-51.3,213.1-84.8,327.3-99.5c21.8-2.8,43.8,3.9,60.3,18.4
			c16.4,14.4,25.8,35.2,25.8,57v392.6c0,36.1-25.9,67.5-61.6,74.7c-191.2,38.4-342,186.3-384.3,376.7
			C548,965.1,517.4,989.8,481.5,989.8z M925.5,32.4c-2.3,0-4.6,0.2-6.9,0.4c-455.7,58.8-814.9,418-873.7,873.7
			c-2,15.4,2.7,30.9,12.9,42.5c10.1,11.5,24.7,18.1,40,18.1h383.7c25.2,0,46.7-17.4,52.2-42.3c44.2-199.1,202-353.8,402-394
			c25.2-5.1,43.4-27.1,43.4-52.5V85.8c0-15.3-6.6-29.9-18.1-40C951.1,37.1,938.5,32.4,925.5,32.4z"/>
	</g>
</g>
</svg>
