<?xml version="1.0" encoding="utf-8"?>
<!-- Generator: Adobe Illustrator 24.1.2, SVG Export Plug-In . SVG Version: 6.00 Build 0)  -->
<svg version="1.1" id="Livello_1" xmlns="http://www.w3.org/2000/svg" xmlns:xlink="http://www.w3.org/1999/xlink" x="0px" y="0px"
	 viewBox="0 0 1000 1000" style="enable-background:new 0 0 1000 1000;" xml:space="preserve">
<style type="text/css">
	.st0{fill:#039114;}
	.st1{fill:#FF0000;}
	.st2{fill:#F3F400;}
	.st3{fill:#0000FF;}
</style>
<g>
	<g>
		<path class="st0" d="M990.42,478.41V85.8c0-39.17-34.48-69.18-73.33-64.18C457.21,80.91,92.91,445.21,33.62,905.09
			c-5.01,38.85,25.01,73.33,64.18,73.33h383.68c30.51,0,56.67-21.34,63.29-51.13c43.09-194.01,197.7-346.02,393.12-385.31
			C968.33,535.87,990.42,509.46,990.42,478.41z"/>
		<path d="M481.48,989.75H97.8c-21.83,0-42.61-9.4-57.02-25.79c-14.5-16.49-21.21-38.48-18.39-60.32
			c14.72-114.21,48.19-224.34,99.48-327.32c49.99-100.38,115.69-191.63,195.26-271.2s170.82-145.27,271.2-195.26
			c102.98-51.28,213.11-84.75,327.32-99.48c21.83-2.81,43.82,3.89,60.32,18.39c16.39,14.41,25.79,35.2,25.79,57.02v392.61
			c0,36.1-25.92,67.51-61.63,74.69c-191.17,38.43-342.01,186.27-384.3,376.66C547.98,965.08,517.41,989.75,481.48,989.75z
			 M925.46,32.41c-2.3,0-4.61,0.15-6.92,0.44C462.87,91.6,103.6,450.87,44.86,906.54c-1.98,15.38,2.73,30.86,12.93,42.46
			c10.11,11.5,24.69,18.09,40.01,18.09h383.68c25.22,0,46.7-17.38,52.23-42.25c44.23-199.13,202-353.76,401.95-393.96
			c25.17-5.06,43.44-27.13,43.44-52.47V85.8c0-15.31-6.59-29.9-18.09-40.01C951.14,37.12,938.48,32.41,925.46,32.41z"/>
	</g>
</g>
</svg>
