<?xml version="1.0" encoding="utf-8"?>
<!-- Generator: Adobe Illustrator 24.1.2, SVG Export Plug-In . SVG Version: 6.00 Build 0)  -->
<svg version="1.1" id="Livello_1" xmlns="http://www.w3.org/2000/svg" xmlns:xlink="http://www.w3.org/1999/xlink" x="0px" y="0px"
	 viewBox="0 0 1000 1000" style="enable-background:new 0 0 1000 1000;" xml:space="preserve">
<style type="text/css">
	.st0{fill:#039114;}
	.st1{fill:#FF0000;}
	.st2{fill:#F3F400;}
	.st3{fill:#0000FF;}
</style>
<g>
	<g>
		<path class="st1" d="M508.14,978.42H914.2c39.17,0,69.18-34.48,64.18-73.33C919.09,445.21,554.79,80.91,94.91,21.62
			C56.06,16.61,21.58,46.63,21.58,85.8v397.64c0,30.04,20.72,55.9,49.9,63.02c186.1,45.39,331.81,193.83,373.23,381.46
			C451.25,957.53,477.81,978.42,508.14,978.42z"/>
		<path d="M914.2,989.75H508.14c-35.57,0-66.89-24.98-74.49-59.4C393.4,748.07,250.19,601.7,68.8,557.45
			c-34.47-8.41-58.55-38.85-58.55-74.02V85.8c0-21.83,9.4-42.61,25.79-57.02c16.49-14.5,38.48-21.2,60.32-18.39
			c114.21,14.72,224.34,48.19,327.32,99.48c100.38,49.99,191.63,115.69,271.2,195.26c79.57,79.58,145.27,170.82,195.26,271.2
			c51.29,102.98,84.76,213.11,99.48,327.32c2.81,21.84-3.89,43.83-18.39,60.32C956.82,980.35,936.03,989.75,914.2,989.75z
			 M86.54,32.41c-13.02,0-25.68,4.71-35.54,13.38C39.5,55.9,32.91,70.48,32.91,85.8v397.64c0,24.7,16.97,46.08,41.26,52.01
			c93.44,22.79,178.6,71.36,246.28,140.47c67.77,69.2,114.56,155.49,135.33,249.55c5.33,24.12,27.35,41.63,52.37,41.63H914.2
			c15.31,0,29.9-6.59,40.01-18.09c10.2-11.6,14.91-27.08,12.93-42.46C908.4,450.87,549.13,91.6,93.46,32.86
			C91.15,32.56,88.84,32.41,86.54,32.41z"/>
	</g>
</g>
</svg>
