<?xml version="1.0" encoding="utf-8"?>
<!-- Generator: Adobe Illustrator 24.1.2, SVG Export Plug-In . SVG Version: 6.00 Build 0)  -->
<svg version="1.1" id="Livello_1" xmlns="http://www.w3.org/2000/svg" xmlns:xlink="http://www.w3.org/1999/xlink" x="0px" y="0px"
	 viewBox="0 0 1000 1000" style="enable-background:new 0 0 1000 1000;" xml:space="preserve">
<style type="text/css">
	.st0{fill:#F9501C;}
</style>
<g>
	<g>
		<path class="st0" d="M508.1,978.4h406.1c39.2,0,69.2-34.5,64.2-73.3C919.1,445.2,554.8,80.9,94.9,21.6c-38.9-5-73.3,25-73.3,64.2
			v397.6c0,30,20.7,55.9,49.9,63c186.1,45.4,331.8,193.8,373.2,381.5C451.3,957.5,477.8,978.4,508.1,978.4z"/>
		<path d="M914.2,989.8H508.1c-35.6,0-66.9-25-74.5-59.4C393.4,748.1,250.2,601.7,68.8,557.5c-34.5-8.4-58.5-38.8-58.5-74V85.8
			c0-21.8,9.4-42.6,25.8-57C52.5,14.3,74.5,7.6,96.4,10.4c114.2,14.7,224.3,48.2,327.3,99.5c100.4,50,191.6,115.7,271.2,195.3
			c79.6,79.6,145.3,170.8,195.3,271.2c51.3,103,84.8,213.1,99.5,327.3c2.8,21.8-3.9,43.8-18.4,60.3
			C956.8,980.3,936,989.8,914.2,989.8z M86.5,32.4c-13,0-25.7,4.7-35.5,13.4c-11.5,10.1-18.1,24.7-18.1,40v397.6
			c0,24.7,17,46.1,41.3,52c93.4,22.8,178.6,71.4,246.3,140.5c67.8,69.2,114.6,155.5,135.3,249.5c5.3,24.1,27.4,41.6,52.4,41.6h406
			c15.3,0,29.9-6.6,40-18.1c10.2-11.6,14.9-27.1,12.9-42.5c-58.7-455.7-418-815-873.7-873.7C91.2,32.6,88.8,32.4,86.5,32.4z"/>
	</g>
</g>
</svg>
