<?xml version="1.0" encoding="utf-8"?>
<!-- Generator: Adobe Illustrator 24.1.2, SVG Export Plug-In . SVG Version: 6.00 Build 0)  -->
<svg version="1.1" id="Livello_1" xmlns="http://www.w3.org/2000/svg" xmlns:xlink="http://www.w3.org/1999/xlink" x="0px" y="0px"
	 viewBox="0 0 1000 1000" style="enable-background:new 0 0 1000 1000;" xml:space="preserve">
<style type="text/css">
	.st0{fill:#039114;}
	.st1{fill:#FF0000;}
	.st2{fill:#F3F400;}
	.st3{fill:#0000FF;}
</style>
<g>
	<g>
		<path class="st2" d="M469.48,21.58H85.8c-39.17,0-69.18,34.48-64.18,73.33c59.29,459.88,423.59,824.19,883.47,883.47
			c38.85,5.01,73.33-25.01,73.33-64.18V521.59c0-31.05-22.1-57.46-52.54-63.58C730.47,418.73,575.85,266.72,532.76,72.7
			C526.15,42.92,499.99,21.58,469.48,21.58z"/>
		<path d="M913.46,990.25c-3.26,0-6.54-0.21-9.81-0.63c-114.21-14.72-224.34-48.19-327.32-99.48
			c-100.38-49.99-191.63-115.69-271.2-195.26c-79.58-79.58-145.27-170.82-195.26-271.2C58.58,320.69,25.11,210.57,10.38,96.35
			c-2.82-21.84,3.89-43.83,18.39-60.32C43.18,19.65,63.97,10.25,85.8,10.25h383.68c35.93,0,66.5,24.67,74.35,60
			c42.28,190.38,193.13,338.23,384.3,376.65c35.71,7.18,61.63,38.59,61.63,74.69V914.2c0,21.83-9.4,42.61-25.79,57.02
			C949.95,983.55,931.96,990.25,913.46,990.25z M85.8,32.91c-15.31,0-29.9,6.59-40.01,18.09c-10.2,11.6-14.91,27.08-12.93,42.46
			C91.6,549.13,450.87,908.4,906.54,967.14c15.39,1.98,30.86-2.73,42.46-12.93c11.5-10.11,18.09-24.69,18.09-40.01V521.59
			c0-25.35-18.27-47.41-43.44-52.47C723.7,428.92,565.93,274.28,521.7,75.16c-5.53-24.88-27-42.25-52.23-42.25H85.8z"/>
	</g>
</g>
</svg>
