<?xml version="1.0" encoding="utf-8"?>
<!-- Generator: Adobe Illustrator 24.1.2, SVG Export Plug-In . SVG Version: 6.00 Build 0)  -->
<svg version="1.1" id="Livello_1" xmlns="http://www.w3.org/2000/svg" xmlns:xlink="http://www.w3.org/1999/xlink" x="0px" y="0px"
	 viewBox="0 0 1000 1000" style="enable-background:new 0 0 1000 1000;" xml:space="preserve">
<style type="text/css">
	.st0{fill:#F3F4FF;}
</style>
<g>
	<g>
		<path class="st0" d="M469.5,21.6H85.8c-39.2,0-69.2,34.5-64.2,73.3c59.3,459.9,423.6,824.2,883.5,883.5c38.8,5,73.3-25,73.3-64.2
			V521.6c0-31-22.1-57.5-52.5-63.6c-195.4-39.3-350-191.3-393.1-385.3C526.2,42.9,500,21.6,469.5,21.6z"/>
		<path d="M913.5,990.3c-3.3,0-6.5-0.2-9.8-0.6c-114.2-14.7-224.3-48.2-327.3-99.5c-100.4-50-191.6-115.7-271.2-195.3
			c-79.6-79.6-145.3-170.8-195.3-271.2c-51.3-103-84.8-213.1-99.5-327.3C7.6,74.5,14.3,52.5,28.8,36c14.4-16.4,35.2-25.8,57-25.8
			h383.7c35.9,0,66.5,24.7,74.3,60C586.1,260.6,737,408.5,928.1,446.9c35.7,7.2,61.6,38.6,61.6,74.7v392.6c0,21.8-9.4,42.6-25.8,57
			C950,983.5,932,990.3,913.5,990.3z M85.8,32.9c-15.3,0-29.9,6.6-40,18.1C35.6,62.6,30.9,78.1,32.9,93.5
			c58.7,455.7,418,814.9,873.7,873.7c15.4,2,30.9-2.7,42.5-12.9c11.5-10.1,18.1-24.7,18.1-40V521.6c0-25.4-18.3-47.4-43.4-52.5
			c-200-40.2-357.7-194.8-402-394c-5.5-24.9-27-42.3-52.2-42.3C469.5,32.9,85.8,32.9,85.8,32.9z"/>
	</g>
</g>
</svg>
